<?xml version="1.0" encoding="UTF-8" standalone="no"?>
<svg
   xmlns:dc="http://purl.org/dc/elements/1.1/"
   xmlns:cc="http://creativecommons.org/ns#"
   xmlns:rdf="http://www.w3.org/1999/02/22-rdf-syntax-ns#"
   xmlns:svg="http://www.w3.org/2000/svg"
   xmlns="http://www.w3.org/2000/svg"
   viewBox="0 0 591.42499 144"
   height="144"
   width="591.42499"
   xml:space="preserve"
   version="1.1"
   id="svg2"><metadata
     id="metadata8"><rdf:RDF><cc:Work
         rdf:about=""><dc:format>image/svg+xml</dc:format><dc:type
           rdf:resource="http://purl.org/dc/dcmitype/StillImage" /></cc:Work></rdf:RDF></metadata><defs
     id="defs6" /><g
     transform="matrix(1.25,0,0,-1.25,0,144)"
     id="g10"><g
       transform="scale(0.1,0.1)"
       id="g12"><path
         id="path14"
         style="fill:#145899;fill-opacity:1;fill-rule:nonzero;stroke:none"
         d="m 1519.23,559.934 -102.94,0 0,-98.176 102.94,0 0,-111.914 c -26.12,-12.063 -66.37,-20.086 -110.59,-20.086 -17.99,0 -35.04,1.484 -51.11,4.363 -111.34,19.992 -175.1,107.098 -175.1,231.863 0,140.715 84.52,239.207 244.28,239.207 71.43,0 130.74,-18.066 182.96,-44.187 l 0,112.566 c -50.29,18.114 -114.62,33.2 -191.95,33.2 -220.18,0 -363.93,-147.778 -363.93,-348.825 0,-177.386 112.17,-310.925 303.74,-327.871 13.66,-1.215 27.68,-1.871 42.08,-1.871 92.45,0 180.95,23.11 241.26,53.285 l 0,278.446 -121.64,0" /><path
         id="path16"
         style="fill:#145899;fill-opacity:1;fill-rule:nonzero;stroke:none"
         d="m 2019.97,526.813 c -2.06,54.261 -28.17,107.5 -91.52,107.5 -59.28,0 -92.49,-50.262 -92.49,-107.5 l 184.01,0 z m -303.62,-51.297 c 0,142.718 78.38,250.269 214.13,250.269 133.7,0 211.13,-96.484 211.13,-254.293 l 0,-28.125 -304.65,0 c 2.05,-73.422 54.32,-120.687 133.7,-120.687 48.25,0 86.49,13.066 120.65,32.179 l 36.16,-82.421 c -50.22,-31.184 -109.56,-44.235 -167.86,-44.235 -173.88,0 -243.26,118.633 -243.26,247.313" /><path
         id="path18"
         style="fill:#145899;fill-opacity:1;fill-rule:nonzero;stroke:none"
         d="m 2547.65,477.547 c 0,87.422 -39.11,151.754 -114.55,151.754 -75.34,0 -114.58,-64.332 -114.58,-151.754 0,-88.512 39.24,-152.848 114.58,-152.848 75.44,0 114.55,64.336 114.55,152.848 z m -351.83,0 c 0,142.703 95.52,248.238 237.28,248.238 141.7,0 238.23,-105.535 238.23,-248.238 0,-142.774 -96.53,-249.344 -238.23,-249.344 -141.76,0 -237.28,106.57 -237.28,249.344" /><path
         id="path20"
         style="fill:#145899;fill-opacity:1;fill-rule:nonzero;stroke:none"
         d="m 2743.56,713.766 101.49,0 13.01,-53.262 c 43.27,43.191 82.51,65.281 130.76,65.281 22.1,0 48.24,-6.012 67.35,-19.086 L 3013.9,605.188 c -21.05,13.046 -40.17,16.101 -54.2,16.101 -31.18,0 -57.31,-13.082 -96.53,-47.269 l 0,-335.762 -119.61,0 0,475.508" /><path
         id="path22"
         style="fill:#145899;fill-opacity:1;fill-rule:nonzero;stroke:none"
         d="m 3348.18,545.879 c 0,47.219 -32.17,89.457 -85.43,89.457 -47.27,0 -82.41,-31.148 -82.41,-88.434 0,-47.281 30.12,-88.492 83.37,-88.492 48.29,0 84.47,30.184 84.47,87.469 z m 44.17,-402.098 c 0,68.332 -147.66,54.266 -212.01,79.403 -15.1,-11.071 -38.22,-31.172 -38.22,-62.305 0,-47.258 50.21,-76.4376 129.65,-76.4376 72.35,0 120.58,24.1606 120.58,59.3396 z m -357.81,-4.043 c 0,52.274 36.17,93.512 85.42,114.594 -20.05,12.106 -31.13,34.156 -31.13,59.297 0,28.148 18.09,62.328 57.34,89.504 -50.3,29.14 -79.44,84.406 -79.44,147.765 0,87.493 64.39,174.887 193.94,174.887 42.26,0 75.39,-10.023 94.51,-21.121 5.08,-1.945 8.05,-0.969 12.07,2.035 25.1,25.141 56.29,41.227 114.66,41.227 11.05,0 25.05,-1.039 32.09,-2.02 l -24.07,-86.437 c -11.05,2.996 -24.13,5.058 -35.19,5.058 -10,0 -25.1,-2.062 -35.23,-8.089 28.18,-30.137 42.24,-70.372 42.24,-112.54 0,-106.578 -81.42,-175.984 -197.02,-175.984 -22.12,0 -42.25,3.074 -58.29,8.043 -9.08,-15.062 -12.05,-25.086 -12.05,-35.156 0,-85.434 312.57,-6.028 312.57,-183.961 C 3506.96,70.3984 3420.56,0 3255.74,0 3116,0 3034.54,57.3203 3034.54,139.738" /><path
         id="path24"
         style="fill:#145899;fill-opacity:1;fill-rule:nonzero;stroke:none"
         d="m 3583.89,713.766 120.59,0 0,-475.508 -120.59,0 0,475.508 z m -13.06,136.32 c 0,40.242 31.12,72.406 73.35,72.406 42.25,0 74.38,-31.211 74.38,-72.406 0,-39.172 -32.13,-71.356 -74.38,-71.356 -42.23,0 -73.35,31.149 -73.35,71.356" /><path
         id="path26"
         style="fill:#145899;fill-opacity:1;fill-rule:nonzero;stroke:none"
         d="m 4017.02,457.395 c -31.1,-0.969 -53.29,-6.028 -69.32,-15.047 -20.09,-11.063 -29.22,-30.157 -29.22,-54.301 0,-41.211 27.17,-65.367 70.43,-65.367 44.21,0 76.4,22.183 92.45,35.207 l 0,101.515 -64.34,-2.007 z m 74.43,-173.907 c -34.17,-31.129 -77.44,-55.285 -136.72,-55.285 -90.48,0 -157.88,60.285 -157.88,151.801 0,64.336 31.19,104.543 80.46,129.711 33.12,17.098 74.41,25.074 122.68,27.105 l 81.37,3.028 0,15.093 c 0,55.258 -36.19,79.372 -91.48,79.372 -47.25,0 -90.48,-15.047 -124.65,-33.184 l -39.14,77.418 c 56.23,31.203 117.59,47.238 183.89,47.238 127.66,0 191.03,-58.285 191.03,-172.851 l 0,-193.012 c 0,-55.297 2,-96.531 9,-121.664 l -100.45,0 -18.11,45.23" /><path
         id="path28"
         style="fill:#145899;fill-opacity:1;fill-rule:nonzero;stroke:none"
         d="m 4301.15,713.766 102.54,0 12.1,-53.262 c 50.28,39.172 103.52,65.281 162.82,65.281 75.42,0 152.77,-37.152 152.77,-172.851 l 0,-314.676 -120.63,0 0,277.465 c 0,58.297 -12.02,105.566 -73.33,105.566 -39.23,0 -81.49,-21.113 -116.61,-50.312 l 0,-332.719 -119.66,0 0,475.508" /><path
         id="path30"
         style="fill:#52b12f;fill-opacity:1;fill-rule:nonzero;stroke:none"
         d="m 622.824,1151.96 c -83.148,0 -158.543,-33.83 -213.203,-88.42 -14.211,-14.23 -26.957,-29.89 -38.144,-46.72 47.742,31.75 105.019,50.29 166.511,50.29 l 301.59,0 0,-301.618 c 0,-61.484 -18.551,-118.742 -50.289,-166.457 81.387,54.07 135.137,146.504 135.137,251.324 l 0,301.601 -301.602,0" /><path
         id="path32"
         style="fill:#145899;fill-opacity:1;fill-rule:nonzero;stroke:none"
         d="m 461.211,990.324 c -83.137,0 -158.563,-33.832 -213.168,-88.433 -13.91,-13.887 -26.391,-29.118 -37.395,-45.426 48,32.199 105.676,51.031 167.739,51.031 l 301.601,0 0,-301.578 c 0,-62.02 -18.832,-119.754 -51.101,-167.73 80.726,54.195 133.926,146.269 133.926,250.531 l 0,301.605 -301.602,0" /><path
         id="path34"
         style="fill:#52b12f;fill-opacity:1;fill-rule:nonzero;stroke:none"
         d="m 462.082,370.477 c 22.949,15.414 28.945,22.711 30.531,54.132 l 0,295.266 -296.668,0 c -37.605,0 -54.015,-17.262 -63.078,-30.262 l -2.332,-3.328 328.254,0.063 0,-318.09 3.293,2.219 z M 330.824,289.883 c 22.684,12.758 28.531,23.351 29.739,53.988 l 0,244.176 -238.68,0 c -38.7658,0 -50.1096,-12.692 -60.9025,-29.242 l -2.1211,-3.293 268.8166,0 0,-267.418 3.148,1.789 z m -126.371,25.898 c 19.121,10.024 24.949,22.207 24.949,52.196 l 0,88.929 -88.922,0 c -34.714,0 -52.4292,-6.953 -63.1792,-24.851 l -1.918,-3.203 125.9572,0 0,-114.711 3.113,1.64 z m 398.805,514.992 0,-301.66 c 0,-166.582 -135.059,-301.621 -301.613,-301.621 L 0,227.492 0,529.113 c 0,166.578 135.055,301.66 301.645,301.66 l 301.613,0" /></g></g></svg>